<?xml version="1.0" encoding="UTF-8" standalone="no"?>
<!DOCTYPE svg PUBLIC "-//W3C//DTD SVG 1.1//EN"
 "http://www.w3.org/Graphics/SVG/1.1/DTD/svg11.dtd">
<!-- Generated by graphviz version 2.44.0 (0)
 -->
<!-- Title: bst Pages: 1 -->
<svg width="257pt" height="260pt"
 viewBox="0.00 0.00 256.80 260.00" xmlns="http://www.w3.org/2000/svg" xmlns:xlink="http://www.w3.org/1999/xlink">
<g id="graph0" class="graph" transform="scale(1 1) rotate(0) translate(4 256)">
<title>bst</title>
<polygon fill="white" stroke="transparent" points="-4,4 -4,-256 252.8,-256 252.8,4 -4,4"/>
<!-- 8 -->
<g id="node1" class="node">
<title>8</title>
<ellipse fill="none" stroke="black" cx="123" cy="-234" rx="27" ry="18"/>
<text text-anchor="middle" x="123" y="-230.3" font-family="Times,serif" font-size="14.00">8</text>
</g>
<!-- 3 -->
<g id="node2" class="node">
<title>3</title>
<ellipse fill="none" stroke="black" cx="87" cy="-162" rx="27" ry="18"/>
<text text-anchor="middle" x="87" y="-158.3" font-family="Times,serif" font-size="14.00">3</text>
</g>
<!-- 8&#45;&gt;3 -->
<g id="edge1" class="edge">
<title>8&#45;&gt;3</title>
<path fill="none" stroke="black" d="M114.65,-216.76C110.29,-208.28 104.85,-197.71 99.96,-188.2"/>
<polygon fill="black" stroke="black" points="102.99,-186.44 95.3,-179.15 96.77,-189.64 102.99,-186.44"/>
</g>
<!-- 10 -->
<g id="node7" class="node">
<title>10</title>
<ellipse fill="none" stroke="black" cx="159" cy="-162" rx="27" ry="18"/>
<text text-anchor="middle" x="159" y="-158.3" font-family="Times,serif" font-size="14.00">10</text>
</g>
<!-- 8&#45;&gt;10 -->
<g id="edge6" class="edge">
<title>8&#45;&gt;10</title>
<path fill="none" stroke="black" d="M131.35,-216.76C135.71,-208.28 141.15,-197.71 146.04,-188.2"/>
<polygon fill="black" stroke="black" points="149.23,-189.64 150.7,-179.15 143.01,-186.44 149.23,-189.64"/>
</g>
<!-- 1 -->
<g id="node3" class="node">
<title>1</title>
<ellipse fill="none" stroke="black" cx="27" cy="-90" rx="27" ry="18"/>
<text text-anchor="middle" x="27" y="-86.3" font-family="Times,serif" font-size="14.00">1</text>
</g>
<!-- 3&#45;&gt;1 -->
<g id="edge2" class="edge">
<title>3&#45;&gt;1</title>
<path fill="none" stroke="black" d="M73.98,-145.81C65.96,-136.45 55.53,-124.28 46.53,-113.79"/>
<polygon fill="black" stroke="black" points="49.16,-111.47 39.99,-106.16 43.84,-116.03 49.16,-111.47"/>
</g>
<!-- 6 -->
<g id="node4" class="node">
<title>6</title>
<ellipse fill="none" stroke="black" cx="99" cy="-90" rx="27" ry="18"/>
<text text-anchor="middle" x="99" y="-86.3" font-family="Times,serif" font-size="14.00">6</text>
</g>
<!-- 3&#45;&gt;6 -->
<g id="edge3" class="edge">
<title>3&#45;&gt;6</title>
<path fill="none" stroke="black" d="M89.9,-144.05C91.23,-136.35 92.82,-127.03 94.31,-118.36"/>
<polygon fill="black" stroke="black" points="97.8,-118.72 96.04,-108.28 90.9,-117.54 97.8,-118.72"/>
</g>
<!-- 4 -->
<g id="node5" class="node">
<title>4</title>
<ellipse fill="none" stroke="black" cx="33" cy="-18" rx="27" ry="18"/>
<text text-anchor="middle" x="33" y="-14.3" font-family="Times,serif" font-size="14.00">4</text>
</g>
<!-- 6&#45;&gt;4 -->
<g id="edge4" class="edge">
<title>6&#45;&gt;4</title>
<path fill="none" stroke="black" d="M85,-74.15C75.99,-64.6 64.11,-51.99 53.98,-41.25"/>
<polygon fill="black" stroke="black" points="56.38,-38.7 46.98,-33.82 51.29,-43.5 56.38,-38.7"/>
</g>
<!-- 7 -->
<g id="node6" class="node">
<title>7</title>
<ellipse fill="none" stroke="black" cx="105" cy="-18" rx="27" ry="18"/>
<text text-anchor="middle" x="105" y="-14.3" font-family="Times,serif" font-size="14.00">7</text>
</g>
<!-- 6&#45;&gt;7 -->
<g id="edge5" class="edge">
<title>6&#45;&gt;7</title>
<path fill="none" stroke="black" d="M100.48,-71.7C101.14,-63.98 101.94,-54.71 102.68,-46.11"/>
<polygon fill="black" stroke="black" points="106.17,-46.37 103.53,-36.1 99.19,-45.77 106.17,-46.37"/>
</g>
<!-- nil_10 -->
<g id="node8" class="node">
<title>nil_10</title>
<ellipse fill="black" stroke="black" cx="156" cy="-90" rx="1.8" ry="1.8"/>
</g>
<!-- 10&#45;&gt;nil_10 -->
<g id="edge7" class="edge">
<title>10&#45;&gt;nil_10</title>
<path fill="none" stroke="black" d="M158.26,-143.7C157.7,-130.63 156.95,-113.11 156.47,-101.93"/>
<polygon fill="black" stroke="black" points="159.96,-101.65 156.03,-91.81 152.97,-101.95 159.96,-101.65"/>
</g>
<!-- 14 -->
<g id="node9" class="node">
<title>14</title>
<ellipse fill="none" stroke="black" cx="203" cy="-90" rx="27" ry="18"/>
<text text-anchor="middle" x="203" y="-86.3" font-family="Times,serif" font-size="14.00">14</text>
</g>
<!-- 10&#45;&gt;14 -->
<g id="edge8" class="edge">
<title>10&#45;&gt;14</title>
<path fill="none" stroke="black" d="M168.98,-145.12C174.5,-136.34 181.46,-125.26 187.65,-115.42"/>
<polygon fill="black" stroke="black" points="190.7,-117.15 193.06,-106.82 184.77,-113.42 190.7,-117.15"/>
</g>
<!-- 13 -->
<g id="node10" class="node">
<title>13</title>
<ellipse fill="none" stroke="black" cx="200" cy="-18" rx="27" ry="18"/>
<text text-anchor="middle" x="200" y="-14.3" font-family="Times,serif" font-size="14.00">13</text>
</g>
<!-- 14&#45;&gt;13 -->
<g id="edge9" class="edge">
<title>14&#45;&gt;13</title>
<path fill="none" stroke="black" d="M202.26,-71.7C201.93,-63.98 201.53,-54.71 201.16,-46.11"/>
<polygon fill="black" stroke="black" points="204.66,-45.95 200.73,-36.1 197.66,-46.25 204.66,-45.95"/>
</g>
<!-- nil_14 -->
<g id="node11" class="node">
<title>nil_14</title>
<ellipse fill="black" stroke="black" cx="247" cy="-18" rx="1.8" ry="1.8"/>
</g>
<!-- 14&#45;&gt;nil_14 -->
<g id="edge10" class="edge">
<title>14&#45;&gt;nil_14</title>
<path fill="none" stroke="black" d="M212.98,-73.12C221.62,-59.37 233.83,-39.95 241.03,-28.5"/>
<polygon fill="black" stroke="black" points="244.11,-30.17 246.47,-19.84 238.18,-26.45 244.11,-30.17"/>
</g>
</g>
</svg>
